ply
format ascii 1.0
element vertex 350
property float x
property float y
property float z
element face 0
property list uchar uint vertex_indices
end_header
40.65272222 -75.440000002 0
32.41064814666667 -99.68111111 0
35.040000002 -106.608277778 0
45.44828703833334 -98.42217592499999 0
31.53388889 -84.195277775 0
41.253777782 -70.06005555600001 0
31.611805555 -97.229444445 0
40.978101855 -124.10828703499999 0
39.456944445000005 -74.57777778 0
51.880694446666666 -176.64462962833332 0
57.74986111 -152.49388889 0
31.325833335 -92.547777775 0
33.36944444666667 -81.96444444 0
42.7475 -73.80361110999999 0
42.556527775000006 -92.4 0
46.09453703666666 -118.28745370333333 0
35.22462962666666 -101.71657407 0
61.173472221666664 -149.99504629833334 0
45.079861115 -83.55805555500001 0
43.99172221799999 -76.02027777800001 0
39.22283333399999 -106.868666666 0
33.63845238142858 -84.42761904857143 0
44.258000004 -88.519333336 0
30.246250000000003 -97.685694445 0
35.43522222 -82.54211111 0
41.33861111 -75.72383333 0
33.30777778 -111.65555556 0
42.235416665 -85.55263889 0
41.938703705 -72.68328703499999 0
60.781527775 -161.83430555500001 0
41.87490741 -103.59925926 0
35.4325 -119.05555555666666 0
42.207055554 -75.97761111 0
44.80763889 -68.82791667000001 0
33.563263892500004 -86.754722225 0
45.807500000000005 -108.54305555666667 0
46.775833335 -100.74916666499999 0
47.5098611075 -94.93416666499999 0
48.79361111 -122.53611111000001 0
38.54402778 -89.843194445 0
40.47879629333333 -88.91972222 0
36.125555555 -86.68 0
43.56486111 -116.22388889 0
42.363333335 -71.00625 0
29.95083333 -94.02013889 0
31.258981483333333 -81.46638889 0
46.401190477142855 -94.13555555714285 0
25.907222220000005 -97.42638888833334 0
71.285 -156.76811110999998 0
45.952916665000004 -112.495694445 0
30.532666670000005 -91.15011111199999 0
44.47236111 -73.153194445 0
42.940648151666664 -78.73240740833334 0
34.200185186666666 -118.35805555666667 0
39.17544444400001 -76.668888888 0
45.777870369999995 -111.15268518333333 0
33.93861111333333 -81.11814814666667 0
40.914444445 -81.44263889000001 0
37.701666665000005 -113.0975 0
60.49259259666667 -145.4725 0
37.224444445 -89.57124999999999 0
35.035833335 -85.20361111 0
38.139611110000004 -78.45261111200001 0
32.898888889999995 -80.03972222499999 0
41.88453703333334 -91.70768518333334 0
46.246388885 -84.469305555 0
39.296888892 -80.228111112 0
41.409722218 -81.853777776 0
30.588703703333334 -96.36361111000001 0
35.215555556666665 -80.94268518666667 0
39.99634259166666 -82.88981481166667 0
40.039305555 -88.27875 0
47.168055555 -88.48777778 0
38.757430555 -109.7519444425 0
44.518055555000004 -109.025694445 0
38.80736111 -104.705 0
38.816833333999995 -92.218944446 0
42.907277778 -106.46372222 0
27.771006943750002 -97.50152777625001 0
38.37420635 -81.59301587714286 0
32.516333334 -84.93888889 0
39.048333334999995 -84.668194445 0
44.77986111 -89.66291667 0
29.18166666666667 -81.05453704 0
32.8467361075 -96.851805555 0
39.901666665 -84.21972222 0
42.405972219999995 -90.71013888499999 0
38.85166666600001 -77.03761111200001 0
39.818055555 -104.77638888999999 0
32.896527775 -97.03708333499999 0
31.320555555 -85.448888885 0
46.796944445 -102.799166665 0
46.842111108 -92.192944444 0
37.155092593333336 -107.74907407333335 0
41.533968255714285 -93.65964285999999 0
42.214583335 -83.34888888500001 0
53.898833334 -166.543222222 0
48.115166668 -98.908833332 0
47.398722224 -120.206666664 0
44.864907403333326 -91.48620370333333 0
30.358055555 -85.797222225 0
39.642944446 -106.92211111000002 0
40.824777778 -115.79116666799999 0
42.159999998333326 -76.89236111166666 0
31.80711111 -106.377 0
42.08166666666666 -80.17620370333334 0
45.721666670000005 -87.09013888999999 0
44.122638885 -123.21472222 0
38.03861111 -87.53064814666668 0
35.0731250025 -77.04288194749999 0
40.694166665 -74.17013889 0
24.555925926666664 -81.75972222 0
64.81472222 -147.859583335 0
46.91722222666667 -96.81509258999999 0
36.77638889 -119.71813492142857 0
34.99125 -78.88027778 0
48.311666669999994 -114.25361111000001 0
35.13902778 -111.67041667 0
26.072453704999997 -80.15162037166667 0
34.187083335 -79.724166665 0
42.965777781999996 -83.743666666 0
43.580416665 -96.74138888499999 0
35.33666667 -94.3675 0
40.97833333 -85.18986111499999 0
44.35013889 -105.53222222 0
37.92824074 -100.72796296 0
47.619583335 -117.53402778 0
47.949583329999996 -97.17625000000001 0
32.385277779999996 -94.71333333499999 0
39.120555555 -108.52027778 0
29.689861110000002 -82.27375 0
30.406666665000003 -89.07013889 0
44.485388888 -88.12988888800001 0
40.96736111 -98.308194445 0
31.06597222 -97.82819444500001 0
42.881018516666664 -85.52370370666667 0
36.096666665 -79.94194444499999 0
34.897777780000006 -82.21555555666667 0
47.483111111999996 -111.369722224 0
33.449305554999995 -88.59138889 0
38.534111110000005 -106.93366667000001 0
40.481388890000005 -107.21888889 0
39.708194445000004 -77.728194445 0
32.220555555000004 -80.690416665 0
47.38796296333334 -92.83870370333334 0
46.606777778 -111.982833332 0
21.318111112 -157.921166668 0
32.687722222000005 -103.217055552 0
29.64527778 -95.27875 0
41.067916665 -73.70763889 0
26.227944444000002 -97.65433333200001 0
34.64 -86.77527778000001 0
38.367611108000006 -82.558777778 0
41.26435185333333 -72.88731481333333 0
41.667638885 -70.28041667 0
38.844166665 -99.273611115 0
38.944583335 -77.45875 0
43.107333331999996 -78.94588888800001 0
29.983703700000003 -95.34046296333334 0
37.65 -97.43300000400001 0
43.51486111 -112.067777775 0
34.270055555999996 -77.90288889 0
45.816944445000004 -88.114305555 0
39.724305557499996 -86.2860416675 0
48.565055560000005 -93.40261111 0
41.240972222500005 -76.925 0
48.177083335 -103.639166665 0
40.79601852 -73.10055555666666 0
42.490833335000005 -76.458333335 0
19.7225 -155.05481481666666 0
43.606944444999996 -110.73736111 0
32.310714284285716 -90.07583333000001 0
30.489444444999997 -81.68777778 0
40.63961111 -73.77838888800001 0
20.964583335 -156.67513889 0
37.151574073333336 -94.49833333333333 0
46.929861110000004 -98.678194445 0
58.35495370333333 -134.57648147999998 0
19.73888889 -156.04555556 0
55.35625 -131.71388889 0
42.77898148333333 -84.58759259 0
41.312777775 -105.67402777999999 0
36.07990740666666 -115.15444444333333 0
34.56875 -98.41638889000001 0
33.9425347225 -118.40781250124999 0
33.66341269714286 -101.82198412857143 0
40.274722223333335 -79.40657407666667 0
41.12722221999999 -100.69013889 0
37.044111112 -100.96 0
30.128796296666664 -93.22564815 0
39.81388889 -82.92925926 0
38.037777776666665 -84.60537036999999 0
30.205046296666666 -91.98763889000001 0
40.777777775 -73.87333333250001 0
33.81773809714286 -118.15150793714285 0
21.97763889 -159.34236111 0
34.72930555333334 -92.22634259 0
40.85083333 -96.75902778 0
20.78513889 -156.950416665 0
27.54425926 -99.46148148333333 0
43.87877777999999 -91.25661111400001 0
37.859027775 -80.39902777500001 0
46.37458333 -117.01486111 0
37.326805555 -79.20111111 0
31.942166666 -102.20183333000003 0
43.532129633333334 -84.08101852 0
39.2975 -94.71388889 0
28.430555554999998 -81.316805555 0
40.19305556 -76.76236111 0
41.785416665 -87.75222222 0
32.334861110000006 -88.750555555 0
35.04611111 -89.97763889000001 0
26.176388885 -98.239166665 0
42.37379629666666 -122.87268518333333 0
32.30027778 -86.3925 0
39.141666665 -96.67027777999999 0
42.9369444425 -71.438125 0
25.793425926666668 -80.28740740666666 0
42.94797618857143 -87.89690476142856 0
43.16907407666667 -86.23685185333333 0
21.15277778 -157.098194445 0
28.10259259333333 -80.6437963 0
41.448333334 -90.507666668 0
32.51097222 -92.038333335 0
37.63111111 -118.85138889 0
30.68986111 -88.241805555 0
48.258611110000004 -101.279444445 0
46.35212963 -87.39564815 0
36.587166664 -121.84405555999999 0
43.14097222 -89.33722222 0
46.915972225000004 -114.08902778000001 0
44.884027775 -93.219722225 0
29.992888885999996 -90.25716667 0
38.50513889 -107.894444445 0
41.393055555000004 -70.61527778 0
33.679444445 -78.92902777500001 0
34.829722225 -77.611944445 0
37.72114583374999 -122.22114583250001 0
41.195648150000004 -112.01203703666665 0
20.899583335000003 -156.432083335 0
44.681999997999995 -75.464722222 0
35.392777779999996 -97.60101852000001 0
41.302499999999995 -95.89375000000001 0
64.512166666 -165.44422222199998 0
34.05611111 -117.60111111 0
41.97853174571429 -87.90710317714286 0
36.895277775 -76.20125 0
42.267611110000004 -71.87544444400001 0
43.418240739999995 -124.24231481333334 0
66.88538888800001 -162.599833334 0
37.739277777999995 -87.166722218 0
37.060694444999996 -88.77277778 0
44.65083333 -73.46805556 0
26.68263889 -80.094861115 0
45.58888889 -122.59597222 0
26.91902778 -81.99111110999999 0
35.635000002 -77.384833336 0
37.13175926 -76.49324073999999 0
39.871277776 -75.242277778 0
33.435138890000005 -112.010555555 0
40.662314816666665 -89.68925925666667 0
31.46736111 -89.336805555 0
27.909074073333333 -82.68680555666667 0
42.911527774999996 -112.59513888500001 0
40.49402778 -80.234305555 0
45.57083333 -84.79472222499999 0
30.47333333 -87.18694444666669 0
46.264305555 -119.116944445 0
56.802055558000006 -132.945055556 0
43.07791667 -70.82333333 0
33.8290277775 -116.50611111250001 0
38.290222224 -104.49700000200001 0
46.74342592666667 -117.10870370333335 0
41.72411111 -71.427666666 0
40.218611115 -111.722777775 0
43.64555555599999 -70.307833334 0
44.04527778 -103.05708333 0
40.508611110000004 -122.29277777499999 0
44.254305555 -121.150694445 0
35.87652778 -78.78472221999999 0
42.19625 -89.09486111000001 0
45.63111111 -89.46208333499999 0
37.50527778 -77.31972222 0
41.59490741 -109.06546296333333 0
39.498472225 -119.76777777999999 0
37.325388892 -79.97572222599999 0
43.11981481666667 -77.67175925666668 0
33.300833335 -104.53 0
43.909629630000005 -92.49759259333332 0
26.53611111 -81.75513889 0
35.617361110000004 -106.08888888499999 0
32.73333333333333 -117.18787037 0
29.533666666 -98.469444444 0
32.1275 -81.20236111 0
34.426944445000004 -119.84041666499999 0
41.70694444125001 -86.316493055 0
35.236944445 -120.640833335 0
38.340055558 -75.50988888799999 0
70.19486111 -148.46611111250002 0
40.833833334000005 -77.85472222199999 0
37.89435185 -121.23870370333334 0
38.176944445000004 -85.7375 0
47.44879629666667 -122.30842593 0
28.77674603142857 -81.23626984285714 0
37.61888889 -122.37527778 0
37.24277778 -93.386805555 0
37.047722224 -113.526666668 0
38.26388889 -78.89652778 0
32.446805555 -93.82555556 0
57.047388886 -135.361444446 0
37.36287037333334 -121.93277778 0
31.35875 -100.495416665 0
40.78648148 -111.97120370333334 0
38.790694445 -97.65226851666667 0
38.69555556 -121.590277775 0
34.900555556 -120.45777777999999 0
33.67555556 -117.86749999666667 0
39.84416667 -89.67861111333333 0
33.98861111 -98.49194444 0
27.394444446666665 -82.55425926 0
45.54601852 -94.05925925666666 0
38.74824074 -90.36740740666669 0
38.509277778 -122.81255555800001 0
43.50402778 -114.301944445 0
42.40222222 -96.384305555 0
41.504722223333324 -74.10222222 0
36.16013889 -97.085694445 0
43.110833335 -76.10444444500001 0
30.397175928333336 -84.35083333166666 0
41.588888885 -83.804305555 0
27.974305559999998 -82.534305555 0
36.475444446 -82.40727777800001 0
40.277361115 -74.812916665 0
36.198055554999996 -95.88888889 0
32.116805555 -110.941805555 0
44.741333336000004 -85.58277777600001 0
42.48194444 -114.48722222500001 0
33.45546296333333 -93.98981481666668 0
32.35407407500001 -95.402083335 0
35.810555552 -83.99427778 0
39.94316667 -91.19499999599999 0
35.38777778 -80.70916667 0
30.781805555 -83.276527775 0
30.48333333 -86.52527778 0
56.48444444 -132.368194445 0
44.6875 -111.11125 0
36.281805555 -94.30736110999999 0
59.506249999999994 -139.66 0
46.567499999999995 -120.54097222499999 0
32.65666667 -114.60597222 0
