<?xml version="1.0" encoding="UTF-8" standalone="no"?>
<!DOCTYPE svg PUBLIC "-//W3C//DTD SVG 1.1//EN" "http://www.w3.org/Graphics/SVG/1.1/DTD/svg11.dtd">
<svg version="1.1" xmlns="http://www.w3.org/2000/svg" xmlns:xlink="http://www.w3.org/1999/xlink" preserveAspectRatio="xMidYMid meet" viewBox="194.8755102214076 144.5224475699181 252.24897955718475 253.84007520153952" width="248.25" height="249.84"><defs><path d="M334.93 217.32C335.74 204.87 336.26 177.07 335.79 171.91C331.85 128.64 304.56 147.28 304.3 166.59C304.24 171.87 303.29 199.18 303.2 217.42C296.06 222.92 260.38 250.41 196.16 299.9L195.88 325.72L306.38 275.24L310.37 355.53L278.33 378.47L278.12 395.36L320.39 383.77L320.4 383.91L363.12 394.83L362.61 377.94L330.15 355.54L332.76 275.19L444.12 323.7L443.39 297.93C378.32 249.56 342.16 222.7 334.93 217.32Z" id="anmm4FXJU"></path></defs><g><g><use xlink:href="#anmm4FXJU" opacity="1" fill="#000000" fill-opacity="1"></use><g><use xlink:href="#anmm4FXJU" opacity="1" fill-opacity="0" stroke="#000000" stroke-width="1" stroke-opacity="0"></use></g></g></g></svg>